<svg xmlns="http://www.w3.org/2000/svg" xmlns:xlink="http://www.w3.org/1999/xlink" width="2115.579" height="1282" viewBox="0 0 2115.579 1282">
  <defs>
    <clipPath id="clip-path">
      <path id="Path_47" data-name="Path 47" d="M0-416.086H2115.579v1282H0Z" transform="translate(0 416.086)" fill="none"/>
    </clipPath>
  </defs>
  <g id="Background" opacity="0.05" clip-path="url(#clip-path)">
    <g id="Group_24" data-name="Group 24" transform="translate(599.019 0.002)">
      <path id="Path_5" data-name="Path 5" d="M185.777,15.737c-.191,8.618-6.138,10.8-10.868,14.5-8.337-5.645-20.644-6.932-35.424-5.826,9.221-11.955,34.737-6.855,46.292-8.676M166.758,155.258c-7.288-5.192,0-19.2,8.152-17.39-1.378,7.148-7.285,9.616-8.152,17.39m-27.272,11.579c5.383,0,3.385-7.86,10.929-5.833,10.063,3.774,15.887,12.25,29.9,11.677,9.246-6.96-13.035-12.916-5.408-17.424,4.073,1.482,6.891,4.3,10.868,5.746,2.152-10.023-3.043-12.253-5.46-17.424,22.478-1.248,15.091-30.518,11.022-46.478a55.769,55.769,0,0,1,24.387-2.862c-.706-12.839-14.626-11.5-21.7-17.494,8.469,1.408,6.074-8.846,16.238-5.833,1.945-8.833-4.668-8.482-2.71-17.436,9.736,1.6,6.7-10.3,16.38-8.716,6.817-2.385,23.416,5.719,21.8-5.759,2.5-10.587-11.82-2.949-13.621-8.763-6.437-.86-5.118-10.051-13.627-8.707-11.777-1.744-24.458,10.482-29.949,5.882,1.674-14.688,23.983-7.4,27.186-20.354-5.66-8.442-17.62-10.171-32.733-8.738-8.771-3.346-19.62-7.681-24.467,0-2.275-4.267-8.676-4.218-13.572-5.885C134,.165,107.268-8.955,96.055-1.677c-12.6.3-27.7-2.342-32.807,5.854-.24,6.316,7.449,18.813,2.661,20.237-19.648-3.3-30.735,2.024-48.851-2.881-27.3,4.027-40.018,23.111-68.12,26.217-2.587,10.488,12.221,2.329,10.812,11.665-7.859,7.022-22.438,6.846-29.819,14.512-6.721-3.777-15.545-3.186-19.118,8.67,8.713-2.514,8.423,4.582,13.59,5.737-.08-7.7,13.639-7.7,13.639,0,6.616-1.707,18.507-12.913,19.025,3C-54.557,92.5-70.9,88.494-78.337,94.24c2.491,10.861,12.795,13.381,21.831,17.347,8.4,2.126,5.139-7.974,13.575-5.768,8.306,5.734,16.7,11.274,32.692,8.741-2.217,12.91,1.878,19.318,5.479,26.125-.922,6.8-4.341,10.963-2.728,20.32,10.865,5.694,12.573-13.357,19.1-2.822,1.486,10.359-8.232,8.824-16.368,8.655,2.288,13.036,20.69,8.984,24.448,20.357-6.178,5.019-13.71,8.522-19.062,14.555,7.664,3.793-8.463,5.977-5.386,14.506C14.638,230.289-.4,263.494,14.2,283.111H33.321c7.893.357,4.745,12.349,13.562,11.579,2.744-5.814,4.714-12.408,10.963-14.586-3.3-21.9,13.571-22.181,10.911-43.545,6.955-.222,3.817-11.292,10.8-11.61,10.39,5.906,10.39-6.889,21.846,0,4.329-3.968,8.543-8.22,13.646-11.529C128.2,209.9,134,198.708,147.659,195.963c1.113-10.485,24.051-13.015,16.337-23.281-5.469,6.637-16.917-5-24.51-5.845" transform="translate(89.186 7.562)"/>
    </g>
    <g id="Group_25" data-name="Group 25" transform="translate(481.542 17.497)">
      <path id="Path_6" data-name="Path 6" d="M44.408,68.662c1.409,1.522-2,3.851-2.769,2.973-1.406-1.5,1.985-3.781,2.769-2.973M-12.736,16.486V33.817c8.278-2.021,9.863,3.007,16.22,2.933C4.738,23.511,21.165,11.119,30.762,16.486c4.128,12.167-14.108.379-13.559,8.655,8.21,4.375-9.422,5.213-8.207,11.61,7.085-1.787,9.693,1.171,8.207,8.655C10.79,45.516,9.15,40.389.814,42.611c.4,8.233-9.147,5.669-5.417,17.414,16.244-2.255,27.979-4.036,35.365,8.636C9.15,73.656-4.8,57.184-18.252,62.894-20.413,76.882-1.761,68.584-1.844,80.419c20.533-3.143,48.1,12.879,54.391-8.784,7.1.878,11.685-1.088,10.9-8.741,2.016-7.888-12.705,2.144-10.9-5.792H71.656c-.083-15.495,16.608-13.323,13.608-31.96,14.08-.453,15.424-14.49,32.813-11.7,3.314-6.973,8.666-11.724,18.93-11.6,3.5-7.191-6.049-14.078,0-14.521,11.423-5.568,28.12,2.915,32.686-14.5,0-4.766-7.6-1.565-8.093-5.8C117-26.529,56.234-41.444,9-21.4,5.346-3.843,20.727-6.776,22.592,4.821,4.9,6.306,10.272-16.959-9.992-12.685c-.872,4-4,5.583-2.744,11.708-4.4.2-9.471-.468-8.2,5.8-2.368,9.3,7.1,6.014,8.2,11.665" transform="translate(21.319 32.993)"/>
    </g>
    <g id="Group_26" data-name="Group 26" transform="translate(1099.948 37.804)">
      <path id="Path_7" data-name="Path 7" d="M40.471,15.7c1.421-8.146,14.274-4.19,10.954-17.384C26.53-5.946,2.7-6.88-19.4-7.542c-.2,5.17.638,9.129,2.667,11.711C.472,10.036,14.586,19.2,40.471,15.7" transform="translate(19.429 7.542)"/>
    </g>
    <g id="Group_27" data-name="Group 27" transform="translate(1040.036 43.239)">
      <path id="Path_8" data-name="Path 8" d="M9.272,21.879c-.355,7.185-5.112,8.991,0,14.53,11.185-.616,11.577-12.876,24.421-11.684-.647,12.953-13.343,12.925-13.544,26.189,4.547,3.876,9.129,7.632,19.115,5.848-1.31,9.071,5.728,9.286,13.565,8.636,2.365-10.892,4.736-21.891,8.164-31.911,7.183,7.73,11.336,18.927,29.982,14.561,2.4-22.144-14.407-23.5-21.788-34.826-.823,6.778-7.328-3.4-11.031-3.047-6.613.521-11.173-1.457-13.4-5.725,6.342-7.74-2.306-17.066-13.716-14.546-7.988,4.7,4.322,15.07-2.753,17.384-5.784-13.779-31.783-27.4-32.742,0,1.31,8.445,11.737,6.886,13.723,14.589" transform="translate(4.451 10.513)"/>
    </g>
    <g id="Group_28" data-name="Group 28" transform="translate(1304.202 44.015)">
      <path id="Path_9" data-name="Path 9" d="M16.517,7.631c-.244-18.369-25.3-12.106-24.424,2.89C1.382,19.57,6.411,6.485,16.517,7.631" transform="translate(7.929 3.667)"/>
    </g>
    <g id="Group_29" data-name="Group 29" transform="translate(1480.816 51.796)">
      <path id="Path_10" data-name="Path 10" d="M.323,14.116c21.39-3.87,43.853,10.121,48.918-8.766C42.841-5.862,17.93-10.6,3.052-3.267-3.083-2.913,1.735,8.952.323,14.116" transform="translate(0.155 6.783)"/>
    </g>
    <g id="Group_30" data-name="Group 30" transform="translate(890.279 87.094)">
      <path id="Path_11" data-name="Path 11" d="M566.7,280.762c3.814-5.512,6.027-12.83,16.374-11.523.111,4.492-1.323,11.03,2.645,11.523-4.1,8.75-11.919-2.394-19.019,0M444.082-85.4c-1.409-1.473,1.982-3.75,2.772-2.946,1.375,1.624-2,3.722-2.772,2.946m-8.161,5.839c-1.378-1.5,1.995-3.676,2.707-2.853,1.409,1.371-1.89,3.676-2.707,2.853m-8.269,2.982c-1.316-1.473,2.09-3.861,2.9-2.982,1.452,1.562-2.059,3.75-2.9,2.982M258.933-24.368c-5.173-1.2-11.685-.94-10.874-8.686-8.142-.576,2.562-12.084,0,0,1.942,4.646,13.282-.659,10.874,8.686M57.473,22.119c-1.421-1.479,1.933-3.676,2.728-2.847,1.353,1.5-1.995,3.676-2.728,2.847M54.815,382.583c-1.421-1.534,1.939-3.805,2.658-2.973,1.489,1.439-1.93,3.781-2.658,2.973M5.77-35.925c-1.431-1.568,1.97-3.74,2.7-2.958,1.369,1.565-1.942,3.762-2.7,2.958M-16.008,77.354C-16.178,68.585-6.4,70.2.3,68.672c.219,8.991-8.182,8.658-16.306,8.683m-29.9-20.3q7.663,9.086,21.631,11.619V97.723c-6.114-1.189,1.542-17.085-10.8-11.594-6.027,10.026-2.217,30.478-10.828,37.8-9.073.906-15.776-1.39-21.914,0-7.569,1.633-9.172,8.4-16.328,8.71.869-3.562-7.791-10.051-8.068-2.942-6.385-.841-6.385-7.915,0-8.744-6.225-6.948-10.5-16.022-10.923-29.064,13.59,1.251,8.352,40.939,32.649,29.064,6.12-11.8,10.325-25.727,16.281-37.827-.9-6.661-3.271-11.927-5.475-17.461,1.625-27.3,21.026-35.688,29.936-55.152,3.29-.385,4.964.641,5.472,2.939-2.183,19.959-24.134,18.662-21.631,43.6m914.849-32c6.388-.946,5.069-10.017,13.476-8.639,14.253.268,12.326,17.889,29.973,14.395,3.567-5.155-2.436-14.583,2.772-23.148-7.245-3.543-17.82-19.094-24.442-5.848.836-6.729-.509-11.132-2.7-14.506C873.175-18.385,865.3-31.3,841.7-27.246c-3.141-5.4-10.519-6.181-13.624-11.637-17.817,2.533-21.615-9.943-40.906-5.851-3.77,8.547,7.5,14.885,0,17.488-7.883-1.263-6.44-12.552-13.559-14.515-8.007,8.988-22.713.857-38.347,5.836-9.721-6.8-9-25.111-29.739-20.332C701.586-55.6,704.6-47.6,700-47.6a302.88,302.88,0,0,1-32.612-17.307c-1.227,2.536-2.389,5.05-5.417,5.728,3.4-11.415-6.518-8.67-13.679-8.67,6.712-6.9-2.941-6.581-5.34-11.705-13.128,5.124-12.169-1.667-24.535-2.853-.95,3.882-6.909,2.391-10.88,2.853-2.741,5.435,8.118,9.749,0,11.705-23.419-3.968-53.136,5.158-73.641,0-6.857-1.849-9.493-10.75-16.223-8.723C505.061-73.5,496.663-79.6,487.633-82.41c-3.179-1.158-7.492.656-10.775,0-6.829-1.377-12-9.249-27.217-5.931,1.03-7.447,8.016-8.747,8.111-17.353-3.851-8.535-12.585-11.72-16.318-20.415-8.219,3.9-20.847,3.072-32.7,3.007-6.807-2.443-5.71-13.184-16.34-11.662-6.391,2.921-8.694,10.02-8.17,20.351-13.5-4.693-8.669,10.177-19.059,8.719-5.223-1.2-2.192-11.3-10.892-8.719-7.051,7.98-16.917,13.036-32.588,11.56-4.853,3.747-7.224,9.863-16.349,8.815-3.838,3.685-1.255,14.179-8.312,14.481-5.6,1.836-18.825-4.714-16.146,5.8,0,10.673,15.834,4.27,13.531,17.5C284.4-59.4,281.7-69.851,267.11-67.852c0,7.586,1.529,17.054-5.451,17.4-3.148-3.46-3.148-10.377-2.725-17.4-10.612-2.554-4.378,12.623-16.275,8.67-4.264-5.195-3.727-15.513-16.34-11.677C218.635-58.633,208.23-49.383,199-38.883c-17.638,1.39-16.306-5.423-35.322-5.851-4.406,14.355,14.086,4.431,10.861,17.488-11.364-2.816-23.557,1.476-40.85,0-12.264,5.312-18.967,16.564-32.655,20.3V-24.368c-6.764.474-13.115.521-16.309-2.878.663,16.265.114,31.054-16.346,29.061.906,10.738-9.967,8.695-16.34,11.634-6.739,3.885,4.84,8.716-2.769,11.607C33.333,28.479,32.4,4.024,33-1.02c12.634.071,26.548-1.288,35.378,2.835,7.27-18.215-15.3-27.616-32.72-29.061C31.406-34.308,24.068-38.07,13.987-38.883,10.2-45.631,6.267-51.888.3-56.257H-24.28c-7.365,5.506-14.33,11.776-21.631,17.374-1.249-4.249-3.57,1.214-8.3,0-9.718,11-21.908,19.2-32.588,29.163q-4.6,19.85-16.343,31.84c-.518-3.361-5.022-2.388-8.179-2.847V30.811c-17.3,1.143-19.09,18.406-24.593,32.034,5.5,6.855,6.292,18.573,5.5,31.92,2.63,7.86,17.21,3.133,21.84,8.778-5.956,8.562-10.911,11.761-10.911,20.381,5.8-1.39,5.112,4.055,5.408,8.71-9.684.188-15.785,4.508-24.448,5.688-2.513,5.253-7.711,7.472-5.534,17.516-15.464-4.924-6.071,16.749-19.035,14.5.432,3.454-.567,5.176-2.824,5.8-11.947-1.263-14.345,7.888-21.778,11.724-6.564,1.562-13.88,2.468-13.436,11.582,3.508,3.956,11.783,2.841,18.936,2.927-1.292,13.113,12.625,9.816,10.985,23.268-2.806,3.864-2.732,10.8-8.263,11.579-12.668-6.932-23.94,2.61-40.764,0-2.756,9.6,6.058,31.655-5.562,32.022,2.016,8.529,8.29,12.54,5.562,26.128,12.644-2.893,16.457,3.78,24.544,5.765,10.165-5.564,11.509-5.564,21.711,0,6.181-11.751,15.572-20.264,13.562-40.686,11.971-3.7,9.943-22.295,24.5-23.228,11.564,7.265,16.22-2.034,27.343-2.893-7.7,11.3-3.817,29.452,0,43.6,17.228-1.661,6.514-16.472,8.105-32.019-2.759-.049-3.422-5.118,0-5.8v5.8c5.617.884,5.408,7.789,8.247,11.683,13.2.311,21.4,5.922,24.4,17.461-.447,6.285-6.8,6.159-13.661,5.709-.348,10.2,9.641,9.16,13.661,14.6-1.289-13.082,7.325-15.436,13.612-20.314,1.529-6.563-5.149-4.163-5.475-8.83,5.038-9.071,9.24,9.829,13.778,0-7.486-15.344-41.337-17.932-32.674-40.584,8.09,13.289,23.471,19.543,32.674,31.954,1.514,2.209,3.845,9.043,5.315,11.647,2.133,3.623,6.616,6.957,5.513,11.523v17.433c3.512,3.956,11.854,2.859,19.075,2.936,4.551-10-4.9-24.3,2.639-34.909h8.155c-3.034,11.465-.45,10.845-2.614,23.188C-1.743,288.4-4.2,297.84.3,301.131c9.9,7.4,28.08,5.127,35.359,0,8.155,4.215-7.082,15.094,5.408,14.577,11.235,2.141.592-18.813,13.75-14.577v17.387c-8.016,5.124-2.516,24.621-13.75,26.149-19.805-7.731-44.494-10.46-70.817-11.539-7.853,2.215-6.49,14.324-13.559,17.5-12.52-13.819-37.3-14.577-48.909-29.107,2.081-10.063-3.117-12.331-5.475-17.476,6.351-.813,6.215-7.789,2.636-11.616-16.457-.2-29.554,3.281-40.856,8.7-22.071-1.383-41.226.41-51.779,11.7-2.315-6.107-7.871-8.954-16.26-8.784-2.257,10.235-12.036,12.3-19,17.476-7.405,13.646-4.631,31.464-10.834,43.551-4.085,7.669-18.7,15.526-24.609,23.3-.441,16.986-6.715,27.72-13.652,37.786v75.524c9.416,11.3,17.641,23.912,21.865,40.637,12.536,7.931,20.955,20.329,38.075,23.244,10.982-2.869,23.989-3.488,38.131-2.869,5.639-4.717,5.254-15.673,16.445-14.552,4.856.481,1.548,9.835,5.494,11.582,12.539-1.849,17.348,4.668,27.115,5.839,4.662-2.551,6.931-8.106,16.355-5.839,2.738,22.464-5.8,32.74-5.5,52.41,7.769,14.9,21.051,26.177,16.38,46.469,7.19,9.767,7.683,26.633,10.9,40.667-6.733,13.209-5.179,35.017-10.9,49.365,11.666,11.834,20.092,26.975,24.609,46.546v26.155c12.061,15.1,11.759,43.44,24.427,58.131,26.184-2.034,39.3-17.957,62.647-23.225C18.118,840.255,26.4,828.851,38.4,821.334c-1.363-11.261,4.905-14.2,2.661-26.155,4.89-2.631,7-8.113,16.408-5.863.3-33.51,11.407-55.463,32.742-66.82,3.974-23.651,3.974-57.7,0-81.322a154.159,154.159,0,0,0,13.47-37.8c6.527-4.711,12.011-10.43,19.124-14.564,12.958-20.055,24.707-41.468,38.171-60.929,2.072-10.907,5.685-25.736-2.806-32.025-11.648-1.759-11,9.5-21.664,8.735H111.95c-1.31-19.9-14.869-26.787-24.59-37.768,2.423-19.106-16.158-15.671-10.852-37.848-4.621-6.594-13.109-9.24-16.306-17.384,2.587-8.753-3.909-22.609,0-23.225,6.487,4.973,13.806,20.215,10.834,26.118,11.432,12.176,18.988,28.14,30,40.717,6.5,12.09,5.463,30.244,19.127,40.655,18.97-6.751,32.295-19.654,54.379-23.33,3.817-1.7.481-11.129,5.386-11.517,11.827-2.037,16.778-11.283,27.288-14.623-1.936-12.669,7.985-12.91,8.213-23.173-4.7-10.466-18.723-11.092-16.426-29.027-10.294-1.436-17.311.807-21.729,5.672-2.251-10.978-12.286-13.917-10.954-29.009-8.79.755-7.862-8.932-13.507-11.61,4.042-1.541,6.832-4.215,10.868-5.826,15.048,10.029,10.529,41.016,38.146,37.808,1.1,5.6,7.717,5.343,5.389,14.549,13.18,1.439,15.119-9.006,27.291-8.686,2.772,1.827,2.824,6.587,8.155,5.829,18.936-3.029,23.653,9.561,35.233,14.423-4.5-1.011-5.075,2.3-5.266,5.876,2.809,5.558,12.462,3.935,16.374,8.713-1.443,9.139,4.859,10.223,2.534,20.335,8.29,9.678,11.808,24.316,16.4,37.8,5.762,5.555,11.367,11.129,13.76,20.274v17.547c3.391,4.021,11.771,2.779,18.961,2.847,3.616-18.554,13.359-30.309,10.849-55.216h10.936V463.822c10.285,4.326,5.269-7.866,13.568-5.709-.768-13.354,9.961-14.654,13.658-23.29a50.61,50.61,0,0,1,24.479-11.607c6.181,7.983,6.215,22.483,16.414,26.254.95,6.822-5.019,6.153-2.9,14.352,3.061,9.493,21.664,2.188,27.4,8.707-3.666,6.165,1.36,8.652-2.806,17.534,7.116,3.023,12.132,8.328,13.605,17.418-.99,5.494-7.757,5.25-5.4,14.567.836,8.772,8.4,10.328,5.4,23.234,13.118,12.093,25.481,25.12,40.835,34.881.728-19.2-12.813-23.025-13.547-40.741-7.59-5.565-14.82-11.338-19.1-20.338,1.252-9.416-3.586-25.062,5.417-26.146,5.969,8.254,10.254,18.283,21.951,20.329,2.029,2.677,2.858,6.535,2.556,11.594,26.459-3.7,32.9-28.854,29.939-63.849-3.481-2.949-10.008-2.9-13.571-5.808,3.468-12.82-13.054-11.942-5.438-20.381,7.976-8.113,7.094,9.561,19.01,5.826,1.973-12.451,15.807-12.321,29.989-11.671,8.645-13.994,20.234-24.775,24.464-43.613,4.433.854,4.677-2.693,8.182-2.782,4.566-11.807-.61-33.605,8.216-40.646-5.808-2.677-8.216-8.621-8.216-17.593-4.591-3.629-10.6-5.971-10.818-14.475-1.205-6.973,5.019-6.356,2.636-14.5,5.642.89,8.6-.589,8.182-5.956,7.809-3.679-12.273-17.347,5.516-17.347,3.086,9.274,12.5,11.711,16.371,20.366-2.67,15.344,5.118,19.741,13.67,23.278,16.309-12.669-.573-44.614,8.111-66.8,5.713-5.527,13.917-8.4,21.772-11.687,6.289-13.594,11.857-27.921,21.658-37.774,3.771-23.407-6.181-47.532,0-63.942-3.706,16.595,6.286,18.557,8.219,29.058.536,18.021,1.354,35.417,13.676,40.643,5.068-5.142-2.223-7.352,0-17.34,7.421-.348,5.482,4.831,10.865,0,.475-9.237-7.233-9.866-5.383-20.452-9.841-1.975-12.406-11.853-16.4-20.283-1.005-10.466.977-24.307-8.087-26.177-5.691.733-.734,12.919-8.139,11.687-4.615-21.4-23.114,13.36-30.09-8.71,1.884-6.781,6.9-10,10.973-14.518,3.123-9.268,2.035-22.92,10.908-26.285,6.243,7.185,4.964-4.261,13.457-2.872,12.847,1.932,24.707,7.623,40.977,5.879-.946,4.954,2.1,5.534,5.352,5.755,3.585-4.012,11.907-2.764,19.121-2.939,1.378-9.16-4.84-10.189-2.7-20.274,5.528-.829,5.294-7.835,10.874-8.729,5.589.894,5.358,7.9,10.9,8.729-1.27-6.387,8.1-16.034,10.79-8.729-8.7,18.653-21.479,33.137-24.458,58.088,1.779,7.854,7.788,11.1,10.951,17.47,1.2,11.132,3.2,21.768,10.812,26.118,6.8-7.308,10.806-17.538,19.09-23.3-2.491-14.367,8.728-12.247,2.864-23.158.69-5.885,7.2-5.746,8.065-11.622-4.008-3.46-12.206-2.6-10.929-11.659,2.682-25.5,20.545-19.993,40.89-17.448,3.934-4.465,3.549-13.532,8.17-17.384,15.875-1.26,27.834-9.234,38.011-8.769,0-12.432-13.473-10.627-13.476-23.228" transform="translate(272.054 134.911)"/>
    </g>
    <g id="Group_31" data-name="Group 31" transform="translate(0.001 92.151)">
      <path id="Path_12" data-name="Path 12" d="M187.583,330.355c6.484.989,6.181,9.037,10.926,11.613-3.434,7.333-13.254-3.115-10.926-11.613m-2.627-5.826c.512-3.3,2.627-1.541,2.627,0-.425,3.374-2.627,1.658-2.627,0M242.171-93.8c-1.474-1.593,1.779-3.842,2.6-2.942,1.424,1.467-1.878,3.639-2.6,2.942m84.33-5.95c8.617-1.337,9.619,5.37,19.059,3.007,0,11.517-10.667,11.89-19.059,14.419Zm10.874-14.537c8.37,2.835-2.991,7.826-2.79,11.64-8.225-2.792,1.3-9.813,2.79-11.64m209.714,226.75c1.344,1.5-1.985,3.63-2.769,2.853-1.384-1.5,1.955-3.787,2.769-2.853M672.3,594.879c-4.785-5.457-8,1.211-13.593,2.85-4.291-9.949-14.851-13.27-24.427-17.522H615.212c-4.881-8.4-23.117-2.483-24.547-14.447-7.258,0-16.1,1.633-16.26-5.833,7.825-13.554-8.074-50.656-32.76-37.679-8.6-5.438-14.869-13.212-16.3-26.276-14.228-4.218-24.375-12.731-38.217-17.38-3.536,1.072-4.239,5.071-8.124,5.786-3.693-10.467-16.954-10.953-19.142-23.2-8.7-2.6-5.611,7.453-10.834,8.723-6.332-2.027-7.22-9.678-13.633-11.622-2.466,5.05-4.951,10.035-13.6,8.695-4.19,12.078-15.07,16.792-21.732,26.189.623-9.585-3.314-14.028-10.969-14.567-7,3.063-10.1,10.451-19.167,11.6-6.354-14.182,2.873-27.628,0-46.552-4.914-10.072-22.959-6.245-32.557-11.52,2.7-12.691,10.606-19.67,8.185-37.793-13.2,1.759-13.917,1.759-27.189,0-5.016,6.261-2.614,20.4-10.929,23.17-36.435,2.114-13.658-49.821-21.782-72.615,9.638-2.419,15.378-8.7,24.541-11.56,14.885-1.377,18.381,9.32,32.594,8.642-.222-4.079-.561-8.137,2.766-8.642,13.106.681,30.633-3.716,32.652,8.642-1.175,16.829,6.012,24.726,19.038,26.232-3.262-14.983-1.81-19.537,0-29.119-3.077-4.354-7.751-7.12-8.152-14.552,4.575-19.251,16.605-30.731,35.35-34.9,2.506-8.454,2.506-8.858,0-17.384,6.366.832,10.473-.474,13.769-2.936-6.789-15.929,8.854-12.414,5.352-31.973,9.064-3.9,17.69-8.088,27.174-11.588,1.434-9.135-8.247-6.606-5.392-17.417,9.961-8.8,25.071-12.056,38.257-17.461,1.887,7.891-5.54,5.882-5.54,11.622,10.9-4.837,22.457-8.932,30.013-17.393-6.721-4.545-20.286-1.8-19.115-14.543,1.52-8.072,10.448-8.1,16.38-11.585,1.091-7.065-5.022-6.289-2.793-14.57,13.248,9.57,28.589-14.062,38.125-8.732-6.292,15.566-19.26,23.949-24.485,40.643,10.082,2.1,11.715-4.942,21.708-2.832.253,4.489-1.2,11.061,2.778,11.619,2.7-7.185,10.427,3.984,19.068,0-1.323-6.683-5.343-14.835,0-20.375-9.936-1-12.458-9.946-16.371-17.476.94-18,.94-19.568,0-37.814-5.223-5.367-6.777-.176-13.562,0,.293-13.739-12.588-13.7-13.621-26.075,2.087-2.508,2.889-6.594,2.7-11.61-10.485-6.372-6.69-27.909-21.84-29.107-1.381,4.258,3.268,15.039-2.7,14.6-5.62-1.732-17.9,3.642-19.072-3.007V25.246c-14.573,6.991-11.907-6.778-24.544-8.726-7.159,8-5.87-3.4-13.528-2.856-6.6-1.165-5.882,5.266-13.646,2.856,4.063,28.962-7.39,45.246-2.759,66.838-4.631.838-13.556-8.23-16.362,0,2.735,8.291,9.086,1.858,10.948,5.783-9.52,6.344-9.718,22.535-13.6,34.943-6.234-8.892-7.458-23.157-10.837-34.943-5.559-5.783-5.4,1.346-10.9,2.918-2.359-8.4-4.064-3.14-10.969-2.918-8.118-8.75-17.327-16.321-29.825-20.307,4.289-14.45-9.591-9.259-8.4-20.366,5.929,1.4,5.3-4.135,5.58-8.686,9-4.964,12.828-15.288,21.757-20.388,6.012-10.18,10.186-22.131,24.6-23.228.185-5.186-3.351-6.107-2.747-11.6,18.366-3.861,28.61-6.282,40.742-11.637-.583-11.24,0-21.46,2.759-29.058-3.2-4.249-10.3-4.545-13.562-8.682,10.8-.964,20.111-.129,24.436,5.752,5.106-8.821,13.072,3.374,21.8,0-3.8,14.8,12.437,8.072,10.883,20.452-2.67,21.287-32.3,13.84-35.4,34.776,4.5,6.9,15.875,6.362,27.272,5.755,16.9,8.171,23.6,27.228,46.341,29.132C519.256,16.006,529.9,16.4,528.082-.891c-1.205-7.558-8.25-8.756-8.269-17.488,10.374.641,13.235,9.225,21.831,11.61-.768-7.552-.987-14.453,8.17-11.61-1.905-8.917,2.762-10.577,2.639-17.451-7.35,2.046-5.152-5.956-8.133-8.673-9.3-1.645-16.383-5.657-24.507-8.753.777-5.928,7.436-5.608,8.269-11.557-3.511-6.97-12-8.627-11.025-20.329H492.624c1.3-9.2-7.313-7.666-8.164-14.6-11.6-1.67-18,2.107-27.245,3.007,1.625-18.012-21.51-12.3-24.544-3.007,1.014-10.827-2.17-17.02-10.871-17.482-14.059,9.253-30.4,38.957-13.6,55.29,4,1.618,13.978-3.3,13.6,2.878-2.926,8.544-8.617,14.007-13.6,20.452-6.971-7.185,5.722-6.3,2.762-17.522-9.311-6.513-18.15-13.621-21.865-26.189-10.353,1.4-8.636-10.026-21.655-5.749.94,6.929-5.136,6.261-2.864,14.45,9.345,3.953,5.885,27.061,0,32.04-3.99-2.523-5.873-7.281-5.306-14.552C345.561-58.19,345.561-45.375,334.585-44.5c-10.125-4.631-21.23-8.233-27.143-17.436,12.147-2.2,16.392,3.876,27.143,2.878,6.009-6.014-1.246-8.313,0-17.43,15.1-3.272,21.106-16.271,35.347-20.249-4.939-9.129-3.925-16-5.352-23.241H323.835c-6.018,8.119-19.583,8.119-21.886,20.234-1.384-4.3-3.989-7.188-5.4-11.551-7.205-.151-16.981,2.678-13.575-8.683,20.157,4.449,44.2-10.58,62.586-17.528,0,13.4,23.3,10.029,27.245,2.93-1.9-6.634-2.457-14.761-5.361-20.415-16.059,2.277-23.943,13.43-40.943,14.62v-17.417c-14.879-5.377-17.549,13.686-8.13,17.417-15.612,2.043-24.427-3.211-38.054-2.924,4.033,15.048-12.576,8.051-13.621,17.457,6.783,3.685,8.377-1.476,10.8,2.918-1.748,3.848-5.836,5.4-10.8,5.694-4.387-16.6-25.984-14.962-46.356-14.512-1.427,14.1-8.386,22.079-16.383,29.1-.481,9.142,7.119,9.835,5.528,20.323,13.451.878,20.166-5.5,29.8-8.695-5.559,15.747,14.965,3.494,16.436,11.677,1.948,7.86-12.825-2.1-10.948,5.719-.062,15.735,29.794-.7,24.6,20.363,10.162-6.458,13.313-4.594,24.415,0h2.765c-.86-3.5,7.84-9.983,8.179-2.875-.478,3.442-4.322,3.241-8.179,2.875.728,7.336,11.663,16.515,0,20.425-3.209-.592-2.214-5.373-2.765-8.747-24.159-2.308-36.4-17.285-65.3-14.552-8.324-2.714-8.543-14.093-18.995-14.515-1.289,8.251-8.5,10.266-16.392,11.585.894-6.717-.429-11.1-2.642-14.558-10.513.662-10.513,12.346-21.785,11.68-10.347,2.225-13.013-3.562-21.837-2.875-3.018.7-1.779,5.752-5.442,5.752-2.642-.037-2.207-3.54-2.642-5.752-6.527.943-10.334,4.575-19.192,2.875C97.842-76.424,55.922-69.5,32.538-82.321c-20.363,9.5-46.782,12.189-59.922,14.549C-33.6-56.5-22.464-56.282-19.319-47.366-8.911-48.762-2.291-46.2-.183-38.609c-11.031-4.049-9.789,5.142-13.673,8.7-4.967-2.573-7.384-7.527-13.528-8.7-10.35,11.2-35.233,7.022-43.625,20.23,15.021-.484,20.339,9.314,21.8,23.4,14.447-5.577,25.287.776,38.143-3.1C-24.4,27.548-81.029,6.886-76.512,51.362c9.073,7.025,11.21,7.968,8.229,23.3,4.914.36,5.667-3.58,10.8-2.909.234,4.634-1.27,11.058,2.744,11.61,3.854-9.271,1.258,11.89,8.232,8.7,3.357-11.32,15.5-13.9,24.436-5.783-11.749,9.779-16.007,27.406-29.847,34.863-12.5,4.181-16.762,16.98-32.64,17.38,2.192,9.323-4.347,8.981-5.5,14.58,12.452,1.642,16.969-5.173,29.909-2.9,3.058-8.381,11.592-10.805,21.849-11.677,10.239-19.969,27.938-32.071,43.566-46.46h5.5c2.833-2.724.8-10.611,8.062-8.7.2-1.747.475-3.445,2.685-2.841-.145,1.725-.305,3.423-2.685,2.841,1.175,13-7.285,15.375-10.871,23.256,22.386,2.644,27.8-12.783,46.323-14.555,1.221-13.021-1.437-21.826-2.738-32,12.508,2.739,13.208-7.225,24.378-5.823A77.122,77.122,0,0,1,95.089,74.658c17.308,5.86,32.113,14.262,29.93,40.661,13.171-1.883.623-16.1,10.994-17.461.617,24.6-.869,51.112,8.037,66.866-8.21,7.552-2.784,10.765,0,20.375,0,5.731-7.4,3.6-5.306,11.653-1.32,31.846-3.12,53.2,0,84.231,7.217,4.806,12,12.334,18.964,17.47,7.5,11.221,6.955,31.156,16.306,40.627-3.145.521-2.291,5.293-2.75,8.738,11.4,4.369,13.991,17.972,19.186,29.07,8.29-2.2,7.846,5.072,16.14,2.81.392-12.361-5.257-9.672-5.312-26-1.551,0-3.077-2.471,0-2.973v2.973c5.759-1.488,5.062,4.1,5.312,8.642A95.793,95.793,0,0,1,228.48,385.6c-1.97,20.483,5.244,31.211,10.8,43.622,22.509,5.965,35.739,20.856,62.666,14.42a114.26,114.26,0,0,0,10.957,20.409c10.276-2.243,13.054,3.546,21.68,2.918,2.584,6.988,7.988,10.858,13.621,14.478V490.2c15.748,1.747,18.945,16.7,32.776,20.338,2.772-3.842,2.6-10.784,8.118-11.539,1.005,10.442,5.571,17.331,8.152,26,0,5.842-7.375,3.833-5.386,11.681,1.255,14.965-8.722,17.892-10.883,29.089-5.281,20.286,10.954,31.35,0,40.674,4.751,5.549,13.427,6.9,19.087,11.7-2.254,4.193-8.759,4.1-13.615,5.731-1.982,23.4,9.992,31.945,24.51,37.885,1.088,6.936-5.041,6.252-2.762,14.481,10.171,8.485,13.8,23.946,30.016,26.161,4.967,12.971,13.565,22.212,13.516,40.655-2.762,3.83-2.553,10.71-5.309,14.487,3.576,1.926,4.973,6.239,5.309,11.656-7.31,13.082,3.274,28.34,0,46.487-14.7,9.382-7.939,41.909-13.516,61.03,4,8.039,11.133-5.041,13.516,2.967,2.476,14.232-9.3,13.31-13.516,20.264-3.465,9.447,8.66,2.271,5.352,11.714-5.189,7.028,2.987,14.062-2.759,23.151,2.658,19.759,11.823,29.921,5.614,46.565,8.019,6.782,7.171,23.164,16.269,29.055-.392,5.164,3.2,6.1,2.658,11.588,6.881,1.51,11.281,5.491,16.322,8.679,10.217-1.766,28.086,4.8,29.887-5.839a24.9,24.9,0,0,1-16.272-11.634c2.035-9.792-11-3.66-8.158-14.475-.934-12.722,7.874-14.943,8.158-26.177,7.051-.351,10.569-4.193,10.963-11.554,1.387-10.319-9.6-7.1-8.182-17.485,7.3-8.96,18.5-37.657,0-40.683,18.23,4.93,17.607-10.121,21.745-20.267,14.66,1.02,19.667-8.211,30-11.677,1.8-13.554-4.366-18.665-5.494-28.987h21.8c.16-2.924,3.342-2.341,5.482-3,1.508-7.087,2.325-14.9,10.9-14.494-.974-16.487,10.273-19.981,16.282-29.116V775.04c5.186-5.167,8.475-12.318,13.575-17.5a224.94,224.94,0,0,0,24.516-8.692c1.242-18.638,14.438-34.816,5.46-55.238,4.134-2.425,5.91-7.317,5.448-14.564,4.4.955,4.745-2.662,8.219-2.81,1.011-9.619,8.01-12.836,10.911-20.286,7.226-7.586-.4-14.047,8.053-17.47-1.875-8.935,2.75-10.685,2.75-17.534.139-10.8-2.75-18.4-5.408-26.063" transform="translate(90.053 158.741)"/>
    </g>
    <g id="Group_32" data-name="Group 32" transform="translate(1282.493 98.903)">
      <path id="Path_13" data-name="Path 13" d="M23.955,54.941c-3.983-13.36-16.762-17.085-13.723-37.8C29.48,15.38,36.648.781,51.033-6.151,68.246-4.265,76.94-11.327,78.429-26.4H64.7c-.663,2.274-.043,5.765-2.79,5.765C41.507-18.235,26.283-10.19,10.232-3.178,11.589,11.744-2.938,9.985-.7,25.843c-3.364,6.193-10.156,8.528-10.8,17.424,8.651,6.128,17.157,12.654,27.091,17.51,1.209-3.682,3.607-6.011,8.364-5.836" transform="translate(11.5 26.4)"/>
    </g>
    <g id="Group_33" data-name="Group 33" transform="translate(1745.016 98.724)">
      <path id="Path_14" data-name="Path 14" d="M18.59,19.753C25.132,15.066,28.347,6.9,35.01,2.3,24.654.872,22.453-11.077,13.142-9.314c-1.178.163-2.528,6.831-5.426,5.768H-8.538c-3.638,21.176,19.411,14.013,27.128,23.3" transform="translate(8.924 9.491)"/>
    </g>
    <g id="Group_34" data-name="Group 34" transform="translate(857.71 212.256)">
      <path id="Path_15" data-name="Path 15" d="M31.229,31.346c.305-7.395,10.168-4.572,13.639-8.664,2.883-14.74-6.2-16.675-5.426-29.015C27.634-2.481,23.41-8.181,12.2-3.5c-7.4-1.787-6.82-12.149-16.38-11.536C-.829-.983-14.992-5.34-14.992,5.2-7.38,7.631-7.947,1.139-1.5,2.35-2.922,9.378-11.961,8.571-9.587,19.74,4.043,15.932,1.089,29.763,9.534,31.346c2.244-5.983,18.914-2.983,21.7,0" transform="translate(14.992 15.062)"/>
    </g>
    <g id="Group_35" data-name="Group 35" transform="translate(490.123 240.876)">
      <path id="Path_16" data-name="Path 16" d="M27.527,12.015C16.74,8.934,23.834,4.676,16.724-2.527,8.462-.4,8.675-7.491.338-5.374-3.507.206-1.068,12.36-13.215,9.267c.17,10.134,8.922,11.6,18.97,11.5-.888-22.717,18.581,9.524,21.772-8.747" transform="translate(13.215 5.774)"/>
    </g>
    <g id="Group_36" data-name="Group 36" transform="translate(955.573 299.237)">
      <path id="Path_17" data-name="Path 17" d="M36.968,43.31c-3.789-3.032-8.4-4.84-11.05-8.719C29.323,17.367,7.868,14.634,17.8-.321,14.12-3.279,9.539-5.106,6.816-9.1c3.946-2.459,8.642-4.267,8.213-11.588-9.977-.9-15.2,3.281-21.711,5.765C-4.665.933-10.988,7.677-9.434,22.9c6.57,4.184,9.964,4.56,13.525,5.8C5.235,39.009-5.069,44.687-9.434,40.278c-2.124,13.095,1.881,19.466,5.451,26.236-4.782,2.677-14.6-.173-13.707,8.732,13.531-2.107,27.183-3.972,43.609-2.955,2.241-12.448.746-20.665,11.05-28.981" transform="translate(17.747 20.811)"/>
    </g>
    <g id="Group_37" data-name="Group 37" transform="translate(933.813 342.951)">
      <path id="Path_18" data-name="Path 18" d="M1.838,21.631c6.28-3.109,16.534-1.916,21.843-5.845-2.873-12.152-.632-12.845,0-26.18H10.126c-.166,13-6.181,3.679-10.88,8.744.339,8.387-1.5,18.973,2.593,23.281" transform="translate(0.883 10.394)"/>
    </g>
    <g id="Group_38" data-name="Group 38" transform="translate(1854.172 433.075)">
      <path id="Path_19" data-name="Path 19" d="M11.032,17.66c5.25.364,1.964,9.573,8.226,8.692,6.018-7.133,5.084-21.642,16.3-23.188C21.308.985,12.367-6.958-2.521-8.486-.538,5.327-5.585,11.47-5.283,23.557c7.486,7.78,6.78-7.527,16.315-5.9" transform="translate(5.296 8.486)"/>
    </g>
    <g id="Group_39" data-name="Group 39" transform="translate(1807.931 467.913)">
      <path id="Path_20" data-name="Path 20" d="M.016,55C-.459,65.218,6.435,67.464,10.9,72.329,12.8,61.807,19.4,56.271,27.288,52c3.626-.031,5.87,1.43,8.084,3,8.608-11.194,26.656-12.281,35.415-23.3C70.315,10.982,64.753-4.584,65.4-26.429h-11C57.755-12.807,53-6.152,57.218,8.424c-2.161.7-3.132,2.474-2.818,5.95C44.63,18.8,39.815,22.185,29.906,31.705,20.333,37.038,3.028,33.92,2.689,49.181,1.462,57.2,17.518,46.935,16.371,55Z" transform="translate(0.008 26.429)"/>
    </g>
    <g id="Group_40" data-name="Group 40" transform="translate(1143.573 522.843)">
      <path id="Path_21" data-name="Path 21" d="M0,2.165c.8,8.128,9.033,2.342,16.275,8.787C18.245.085,12.107-1.914,2.753-.746,3.2,1.678,1.628,2,0,2.165" transform="translate(0 1.04)"/>
    </g>
    <g id="Group_41" data-name="Group 41" transform="translate(1750.686 613.888)">
      <path id="Path_22" data-name="Path 22" d="M0,7.454c4.43,4.049,7.039,9.9,8.179,17.393,11.336-.666,10.408-14.228,11.01-26.122C12.369-7.745,2.926.759,0,7.454" transform="translate(0 3.582)"/>
    </g>
    <g id="Group_42" data-name="Group 42" transform="translate(490.124 616.195)">
      <path id="Path_23" data-name="Path 23" d="M0,0V11.585H10.892C10.553,4.27,6.949.305,0,0"/>
    </g>
    <g id="Group_43" data-name="Group 43" transform="translate(508.846 616.195)">
      <path id="Path_24" data-name="Path 24" d="M7.578,9.723c.808-6.631-.4-11.058-2.756-14.395H-3.391c-1.02,9.9.836,16.549,10.969,14.395" transform="translate(3.638 4.672)"/>
    </g>
    <g id="Group_44" data-name="Group 44" transform="translate(522.724 627.779)">
      <path id="Path_25" data-name="Path 25" d="M0,0V14.537c5.713,1.171,7.273-1.99,10.9-2.97C10.578,4.224,6.992.311,0,0"/>
    </g>
    <g id="Group_45" data-name="Group 45" transform="translate(451.949 633.599)">
      <path id="Path_26" data-name="Path 26" d="M44.16,27.47c9.779-1.7,13.183,3.358,19.17,5.845.2-8.381,11.259-5.3,18.927-5.845C78.35,8.217,63.33,10.845,46.916,10.028c2-7.925-5.562-5.873-5.562-11.606C35.459-4.853,26.4-5.017,25.107-13.2H-15.648c-1.218,5.524-5.926,7.287-5.528,14.561C-10.089,2.5-10.151-8.227,3.362-4.484c11.463,2.4,12.73,15.544,24.507,17.424,6.484,1.812,19.719-3.663,21.708,2.912-9.949.3-6.792,4.181-5.417,11.619" transform="translate(21.2 13.2)"/>
    </g>
    <g id="Group_46" data-name="Group 46" transform="translate(532.566 639.345)">
      <path id="Path_27" data-name="Path 27" d="M8.062,2.006C7.214-1.975,1.28-.437-2.812-.964-8.552,9.789,11.062,12.186,8.062,2.006" transform="translate(3.87 0.964)"/>
    </g>
    <g id="Group_47" data-name="Group 47" transform="translate(1761.649 659.861)">
      <path id="Path_28" data-name="Path 28" d="M0,9.732a55.23,55.23,0,0,0,16.337,17.43C19.757,18.128,29.006,15.531,27.3,1,19.883-9.522-.376-4.734,0,9.732" transform="translate(0.002 4.677)"/>
    </g>
    <g id="Group_48" data-name="Group 48" transform="translate(1692.997 662.625)">
      <path id="Path_29" data-name="Path 29" d="M2.186,13.773C9.866,12.094,9.866,2.447,13.15-3.706,10.711-5.952,6.99-6.79,2.186-6.59c-5.035,11.329-3.53,2.391,0,20.363" transform="translate(1.05 6.618)"/>
    </g>
    <g id="Group_49" data-name="Group 49" transform="translate(487.306 668.315)">
      <path id="Path_30" data-name="Path 30" d="M0,.053V11.776C9.166,8.67,9.382,12.7,19.038,8.868,20.9-2.776,8.756.558,0,.053" transform="translate(0 0.025)"/>
    </g>
    <g id="Group_50" data-name="Group 50" transform="translate(560.799 668.392)">
      <path id="Path_31" data-name="Path 31" d="M0,7.919c9.844.718,18.908.629,16.383-11.724H0Z" transform="translate(0 3.805)"/>
    </g>
    <g id="Group_51" data-name="Group 51" transform="translate(841.025 680.115)">
      <path id="Path_32" data-name="Path 32" d="M3.856,0c0,5.7-7.387,3.682-5.352,11.585H9.322C10.127,4.936,8.585.629,3.856,0" transform="translate(1.851)"/>
    </g>
    <g id="Group_52" data-name="Group 52" transform="translate(1783.489 697.521)">
      <path id="Path_33" data-name="Path 33" d="M0,19.641c5.642,6.245,7.686-1.5,16.26,0-.872,6.778-5.815,12.546,2.787,14.487C22.9,25.625,30.5,21.191,43.5,22.528,46.067,9.147,34.823,10.5,29.905,5.108,30.59-4.422,26.7-8.936,19.047-9.438c-3.832,3.747-2.7,12.6-2.787,20.341C7.168,5.937,4.486,12.638,0,19.641" transform="translate(0 9.438)"/>
    </g>
    <g id="Group_53" data-name="Group 53" transform="translate(1509.981 735.271)">
      <path id="Path_34" data-name="Path 34" d="M2.6,0C6.5,17.217-7.754,20.754,2.6,29.049c8.6,1.42,7.251-7.8,13.67-8.7C14.015,11.144,8.358,5.521,2.6,0" transform="translate(1.249)"/>
    </g>
    <g id="Group_54" data-name="Group 54" transform="translate(1693.572 761.365)">
      <path id="Path_35" data-name="Path 35" d="M0,35.423C2.661,47.106,14.509,48.939,13.624,64.437,31.29,60.065,28.58,77.464,46.252,73.1c-.774-6.664,7.828-3.2,8.226-8.664-2.081-.675-5.386-.1-5.408-2.995,8.932-3.99,4.452-22.135,13.682-26.02C56.484,25.973,65,16.076,59.934,9.175c4.751-2.588,9.388-5.324,8.148-14.42C61.5-10.8,56.188-17.751,43.572-16.959,41.038,13.368,4.84,7.536,0,35.423" transform="translate(0 17.021)"/>
    </g>
    <g id="Group_55" data-name="Group 55" transform="translate(1606.411 767.286)">
      <path id="Path_36" data-name="Path 36" d="M23.9,17.619C19.8,10.849,11.189,6.182,13.129-2.609,5.683-.6,7.61-8.466,2.2-8.466,2.541,4.33-4.466-8.8-11.474-5.607c0,33.941,38.27,27.037,32.779,66.82,13.405,1.6,17.16,20.73,29.828,14.521,6.262-11.1-5.611-23.8-5.281-37.676C37.515,32.075,27.724,23.793,23.9,17.619" transform="translate(11.474 8.466)"/>
    </g>
    <g id="Group_56" data-name="Group 56" transform="translate(1757.705 799.229)">
      <path id="Path_37" data-name="Path 37" d="M24.809,11.769C24.235-1.135,7.6,2.944,2.913-5.655-11.041,6.312-20.731,38.639.259,49.5c-.6-8.368.629-14.777,5.411-17.417,5.984,5.6,6.357,14.8,16.334,8.8C20.613,28.742,11.5,24.826,11.139,11.769a9.644,9.644,0,0,0,13.67,0" transform="translate(11.91 5.655)"/>
    </g>
    <g id="Group_57" data-name="Group 57" transform="translate(1824.292 801.616)">
      <path id="Path_38" data-name="Path 38" d="M20.2,2.3C11.339-3.623-10.4-2.483-9.678,11.089c9.317,6.19,29.2,3.3,29.875-8.793" transform="translate(9.696 1.103)"/>
    </g>
    <g id="Group_58" data-name="Group 58" transform="translate(1832.145 816.653)">
      <path id="Path_39" data-name="Path 39" d="M35.176,0H16.123C13.684,4.243,12.05,9.268,5.153,8.729-3.279,10.929.072.641-8.313,2.862c.783,7.632-10.738,2.36-8.21,11.582.342,6.566,6.777-3.623,13.457,0C9.093,24.917,25,31.184,35.176,43.557V61.018c14.561-9.4,18.927,5.937,29.945,8.707,9.56-.419,6.555-14.346,19.05-11.622,6.382,3.972,13.608,22.125,24.473,11.622-5.667-2.567-8.284-8.605-8.17-17.35-7.122-6.988-17.12-10.738-21.732-20.406V23.176C57.747,22.4,52.034,5.29,35.176,0" transform="translate(16.887)"/>
    </g>
    <g id="Group_59" data-name="Group 59" transform="translate(1671.311 854.384)">
      <path id="Path_40" data-name="Path 40" d="M46.29,19.668c1.517-10.285-9.5-7.176-8.1-17.454-22.2.607-38.017-6.045-54.5-11.665C-18.7-4.281-23.926-1.989-21.67,8,4.286,8.324,16.646,23.31,46.29,19.668" transform="translate(22.222 9.451)"/>
    </g>
    <g id="Group_60" data-name="Group 60" transform="translate(1707.195 895.052)">
      <path id="Path_41" data-name="Path 41" d="M158.158,68.751c1.1-13.711-4.748-20.006-2.695-34.921-5.334-1.941-6.2-8.753-10.812-11.585-.959-22.252-19.5-25.739-16.359-52.314-5.078.625-5.956-3.241-10.849-2.952-7.014,11.964,2.926,42-8.272,49.433-10.7,3.817-5.5-9.588-16.334-5.848-.422-8.128-12.853-3.522-10.8-14.475-1.406-9.212,13.42-1.085,10.8-11.536-9.453-11.289-37.345-2.936-51.65-8.784-4.742,1.769.136,13.754-5.466,14.469A98.772,98.772,0,0,0,8.5-.965C5.08,7.822,7.537,23.222-2.366,25.2c-6.481-6.889-13.457.419-21.89,0-5.3,2.012.654,16.225-5.358,17.35-5.623-1.6-5.3-8.716-10.868-2.847-6.786,7.281-3.592,25.191-13.612,29.052-6.114,4.169-18.218,1.923-21.834,8.707,2.886,12.941,9.542,29.055,2.735,43.585,5.309,2.067,7.168,7.811,8.161,14.53,1.492,13.255-4.853,18.089-2.827,31.96,8.136-.767,8.525,6.55,16.457,5.848,11.364-5.3,18.039-15.541,38.153-11.665,9.594-12.944,28.694-15.834,51.73-14.493,7.772,6.085,12.788,15.378,16.241,26.158,10.649-5.435,7.353,6.7,19.1,0-.111,7.644.974,16.518-2.762,20.326,17.422,10.8,27.732,11.422,54.53,11.677,6.863-5.241,11.925-12.559,21.775-14.721-1.338-14.842,12.98-13.052,10.791-28.947,9.511-.662,7.116-13.85,16.4-14.493-3.111-10.316,4.68-16.487,5.432-26.18,1.489-17.744-5.269-35.889-8.148-52.292-6.807-3.861-11.259,8.55-13.679,0" transform="translate(75.927 33.036)"/>
    </g>
    <g id="Group_61" data-name="Group 61" transform="translate(1266.019 903.804)">
      <path id="Path_42" data-name="Path 42" d="M27.654.037c-4.782,8.5-8.962,17.544-10.929,29.079C4.911,32.016-1.086,40.865-7.7,49.464-9.891,59.5-3.756,60.688-5.013,69.778c-2.457,6.073-4.335,12.885-8.263,17.454,5.944,13.11-1.874,24.7,8.263,34.878,8.821.533,11.5-5.167,21.738-2.93,5.913-13.015,3.632-18.779,10.929-31.948V72.683c.647-3.257,2.987-4.542,5.417-5.869-4.948-12.716,5.007-24.772,5.58-46.457-10.211.148.25-21.608-11-20.32" transform="translate(13.276 0.018)"/>
    </g>
    <g id="Group_62" data-name="Group 62" transform="translate(2071.806 1086.8)">
      <path id="Path_43" data-name="Path 43" d="M13.041,9.909c.527-8.313.361-15.926-8.136-14.5v23.13C2.729,27.089-8.043,26.14-6.006,39.007,12.3,36.138.222,47.659-.573,56.4c17.206-.875,17.829-19.855,24.556-31.973,4.067-4.363,11.367-5.216,13.528-11.705-6.558-8.966-11.558-1.728-24.47-2.813" transform="translate(6.261 4.761)"/>
    </g>
    <g id="Group_63" data-name="Group 63" transform="translate(2009.354 1136.359)">
      <path id="Path_44" data-name="Path 44" d="M34.97,0C32.648,6.113,26.8,8.59,26.908,17.38c-4.828-.216-8.451.684-10.985,2.9C11.332,26.1,9.6,34.856,2.373,37.666-8.865,42.223-12.167,55.059-16.788,66.78c8.9-4.7,14.792-1.433,24.5,0,2.577-6.923,10.988-7.7,8.207-20.372H26.908C27.663,29.847,48.282,34.5,48.578,17.38,47.632,7.746,40.535,4.85,34.97,0" transform="translate(16.788)"/>
    </g>
    <g id="Group_64" data-name="Group 64" transform="translate(1875.478 1143.806)">
      <path id="Path_45" data-name="Path 45" d="M.327.792C-2.7,5.25,9.422,18.36,11.309,27.031,24.55,25.647,33.078,19.331,30.352.792,18.464,3.134,5.143-2.767.327.792" transform="translate(0.157 0.381)"/>
    </g>
    <g id="Group_65" data-name="Group 65" transform="translate(642.498 1227.206)">
      <path id="Path_46" data-name="Path 46" d="M.007,5.306H10.93C12.8-6.131-.425-4.159.007,5.306" transform="translate(0.003 2.55)"/>
    </g>
  </g>
</svg>
